Pacifico-Normal.ufo
<glyph name="period" format="1">
  <advance width="882"/>
  <unicode hex="002E"/>
  <outline>
    <contour>
      <point x="510" y="0.999999" type="curve" smooth="yes"/>
      <point x="631" y="0.999999"/>
      <point x="701" y="79"/>
      <point x="701" y="196" type="curve" smooth="yes"/>
      <point x="701" y="304"/>
      <point x="639" y="360"/>
      <point x="529" y="360" type="curve" smooth="yes"/>
      <point x="409" y="360"/>
      <point x="342" y="283"/>
      <point x="342" y="166" type="curve" smooth="yes"/>
      <point x="342" y="57"/>
      <point x="402" y="0.999999"/>
    </contour>
  </outline>
</glyph>
<glyph name="one" format="1">
  <advance width="682"/>
  <unicode hex="0031"/>
  <outline>
    <contour>
      <point x="317" y="0" type="curve" smooth="yes"/>
      <point x="358" y="0"/>
      <point x="396" y="24"/>
      <point x="403" y="56" type="curve" smooth="yes"/>
      <point x="484" y="476"/>
      <point x="583" y="891"/>
      <point x="647" y="1316" type="curve" smooth="yes"/>
      <point x="649" y="1327"/>
      <point x="649" y="1337"/>
      <point x="649" y="1346" type="curve" smooth="yes"/>
      <point x="649" y="1429"/>
      <point x="581" y="1464"/>
      <point x="515" y="1442" type="curve" smooth="yes"/>
      <point x="377" y="1395"/>
      <point x="288" y="1346"/>
      <point x="64" y="1258" type="curve" smooth="yes"/>
      <point x="43" y="1250"/>
      <point x="14" y="1240"/>
      <point x="14" y="1192" type="curve" smooth="yes"/>
      <point x="14" y="1133"/>
      <point x="56" y="1077"/>
      <point x="119" y="1105" type="curve" smooth="yes"/>
      <point x="170" y="1128"/>
      <point x="365" y="1209"/>
      <point x="365" y="1209" type="curve"/>
      <point x="288" y="829"/>
      <point x="198" y="414"/>
      <point x="130" y="107" type="curve"/>
      <point x="122" y="93.9999"/>
      <point x="121" y="87"/>
      <point x="121" y="71" type="curve" smooth="yes"/>
      <point x="121" y="8"/>
      <point x="235" y="0"/>
    </contour>
  </outline>
</glyph>
<glyph name="seven" format="1">
  <advance width="926"/>
  <unicode hex="0037"/>
  <outline>
    <contour>
      <point x="231" y="-56" type="curve" smooth="yes"/>
      <point x="311" y="-56"/>
      <point x="384" y="-29"/>
      <point x="410" y="50" type="curve" smooth="yes"/>
      <point x="548" y="470"/>
      <point x="705" y="800"/>
      <point x="913" y="1131" type="curve"/>
      <point x="929" y="1159"/>
      <point x="1010" y="1181"/>
      <point x="1010" y="1252" type="curve" smooth="yes"/>
      <point x="1010" y="1304"/>
      <point x="993.999" y="1343"/>
      <point x="944" y="1343" type="curve" smooth="yes"/>
      <point x="921" y="1343"/>
      <point x="829" y="1333"/>
      <point x="787" y="1333" type="curve" smooth="yes"/>
      <point x="573" y="1333"/>
      <point x="464" y="1379"/>
      <point x="272" y="1379" type="curve" smooth="yes"/>
      <point x="191" y="1379"/>
      <point x="146" y="1273"/>
      <point x="146" y="1155" type="curve" smooth="yes"/>
      <point x="146" y="1083"/>
      <point x="172" y="1024"/>
      <point x="214" y="1024" type="curve" smooth="yes"/>
      <point x="291" y="1024"/>
      <point x="262" y="1159"/>
      <point x="335" y="1159" type="curve" smooth="yes"/>
      <point x="667" y="1159" type="line"/>
      <point x="477" y="866"/>
      <point x="107" y="271"/>
      <point x="107" y="49" type="curve" smooth="yes"/>
      <point x="107" y="-18"/>
      <point x="168" y="-56"/>
    </contour>
  </outline>
</glyph>
<glyph name="colon" format="1">
  <advance width="704"/>
  <unicode hex="003A"/>
  <outline>
    <contour>
      <point x="484" y="0" type="curve" smooth="yes"/>
      <point x="603" y="0"/>
      <point x="672" y="76"/>
      <point x="672" y="191" type="curve" smooth="yes"/>
      <point x="672" y="297"/>
      <point x="611" y="353"/>
      <point x="503" y="353" type="curve" smooth="yes"/>
      <point x="386" y="353"/>
      <point x="320" y="277"/>
      <point x="320" y="162" type="curve" smooth="yes"/>
      <point x="320" y="55"/>
      <point x="378" y="0"/>
    </contour>
    <contour>
      <point x="544" y="672" type="curve" smooth="yes"/>
      <point x="663" y="672"/>
      <point x="732" y="748"/>
      <point x="732" y="863" type="curve" smooth="yes"/>
      <point x="732" y="968.999"/>
      <point x="671" y="1025"/>
      <point x="563" y="1025" type="curve" smooth="yes"/>
      <point x="446" y="1025"/>
      <point x="380" y="949"/>
      <point x="380" y="834" type="curve" smooth="yes"/>
      <point x="380" y="727"/>
      <point x="438" y="672"/>
    </contour>
  </outline>
</glyph>
<glyph name="H" format="1">
  <advance width="2148"/>
  <unicode hex="0048"/>
  <outline>
    <contour>
      <point x="2126" y="-208" type="curve" smooth="yes"/>
      <point x="2205" y="-153"/>
      <point x="2124" y="3"/>
      <point x="2047" y="-29" type="curve" smooth="yes"/>
      <point x="1779" y="-139"/>
      <point x="1270" y="-436"/>
      <point x="1466" y="380" type="curve" smooth="yes"/>
      <point x="1649" y="1140" type="line" smooth="yes"/>
      <point x="1709" y="1387"/>
      <point x="1803" y="1594"/>
      <point x="2000" y="1634" type="curve" smooth="yes"/>
      <point x="2495" y="1734"/>
      <point x="2431" y="676"/>
      <point x="773" y="928" type="curve" smooth="yes"/>
      <point x="656" y="946"/>
      <point x="578" y="756"/>
      <point x="725" y="734" type="curve" smooth="yes"/>
      <point x="2860" y="414"/>
      <point x="2884" y="1983"/>
      <point x="2011" y="1870" type="curve" smooth="yes"/>
      <point x="1818" y="1845"/>
      <point x="1570" y="1695"/>
      <point x="1434" y="1177" type="curve" smooth="yes"/>
      <point x="1215" y="344" type="line" smooth="yes"/>
      <point x="990.999" y="-509"/>
      <point x="1638" y="-547"/>
    </contour>
    <contour>
      <point x="226" y="-306" type="curve" smooth="yes"/>
      <point x="345" y="-326"/>
      <point x="380" y="-244"/>
      <point x="419" y="-124" type="curve" smooth="yes"/>
      <point x="805" y="1076" type="line" smooth="yes"/>
      <point x="941" y="1497"/>
      <point x="913" y="1862"/>
      <point x="584" y="1892" type="curve" smooth="yes"/>
      <point x="327" y="1915"/>
      <point x="124" y="1751"/>
      <point x="41" y="1631" type="curve" smooth="yes"/>
      <point x="-47" y="1504"/>
      <point x="110" y="1353"/>
      <point x="243" y="1507" type="curve" smooth="yes"/>
      <point x="286" y="1557"/>
      <point x="402" y="1678"/>
      <point x="480" y="1678" type="curve" smooth="yes"/>
      <point x="626" y="1678"/>
      <point x="706" y="1484"/>
      <point x="532" y="1014" type="curve" smooth="yes"/>
      <point x="150" y="-45" type="line" smooth="yes"/>
      <point x="72" y="-257"/>
      <point x="157" y="-294"/>
    </contour>
  </outline>
</glyph>
<glyph name="I" format="1">
  <advance width="982"/>
  <unicode hex="0049"/>
  <outline>
    <contour>
      <point x="90" y="-66" type="curve" smooth="yes"/>
      <point x="134" y="-81"/>
      <point x="548" y="-24"/>
      <point x="846" y="-12" type="curve" smooth="yes"/>
      <point x="985" y="-6"/>
      <point x="990" y="143"/>
      <point x="930" y="166" type="curve" smooth="yes"/>
      <point x="870" y="189"/>
      <point x="651" y="176"/>
      <point x="618" y="170" type="curve"/>
      <point x="650" y="515"/>
      <point x="982" y="1649"/>
      <point x="1028" y="1654" type="curve" smooth="yes"/>
      <point x="1136" y="1667"/>
      <point x="1395" y="1662"/>
      <point x="1419" y="1724" type="curve" smooth="yes"/>
      <point x="1450" y="1805"/>
      <point x="1464" y="1874"/>
      <point x="1384" y="1872" type="curve" smooth="yes"/>
      <point x="1304" y="1870"/>
      <point x="600" y="1853"/>
      <point x="526" y="1846" type="curve" smooth="yes"/>
      <point x="452" y="1839"/>
      <point x="423" y="1712"/>
      <point x="460" y="1671" type="curve" smooth="yes"/>
      <point x="501" y="1625"/>
      <point x="706" y="1648"/>
      <point x="805" y="1648" type="curve"/>
      <point x="630" y="1264"/>
      <point x="465" y="662"/>
      <point x="391" y="161" type="curve"/>
      <point x="299" y="157"/>
      <point x="57" y="152"/>
      <point x="36" y="76" type="curve" smooth="yes"/>
      <point x="16" y="5"/>
      <point x="46" y="-51"/>
    </contour>
  </outline>
</glyph>
<glyph name="L" format="1">
  <advance width="1820"/>
  <unicode hex="004C"/>
  <outline>
    <contour>
      <point x="546" y="-292" type="curve" smooth="yes"/>
      <point x="1261" y="-292"/>
      <point x="1438" y="372"/>
      <point x="1408" y="1023" type="curve"/>
      <point x="1408" y="1546"/>
      <point x="1435" y="1703"/>
      <point x="1684" y="1764" type="curve" smooth="yes"/>
      <point x="2364" y="1930"/>
      <point x="2521" y="896"/>
      <point x="836" y="1291" type="curve" smooth="yes"/>
      <point x="722" y="1318"/>
      <point x="662" y="1120"/>
      <point x="763" y="1097" type="curve" smooth="yes"/>
      <point x="2861" y="619"/>
      <point x="2695" y="2086"/>
      <point x="1716" y="1997" type="curve" smooth="yes"/>
      <point x="1401" y="1968"/>
      <point x="1155" y="1788"/>
      <point x="1155" y="1198" type="curve" smooth="yes"/>
      <point x="1155" y="1143"/>
      <point x="1158" y="1085"/>
      <point x="1164" y="1023" type="curve" smooth="yes"/>
      <point x="1244" y="227"/>
      <point x="829" y="-91"/>
      <point x="556" y="-91" type="curve" smooth="yes"/>
      <point x="327" y="-91"/>
      <point x="330" y="114"/>
      <point x="484" y="115" type="curve" smooth="yes"/>
      <point x="1015" y="120"/>
      <point x="1560" y="-710"/>
      <point x="2160" y="-286" type="curve" smooth="yes"/>
      <point x="2235" y="-233"/>
      <point x="2132" y="-67"/>
      <point x="2058" y="-111" type="curve" smooth="yes"/>
      <point x="1511" y="-437"/>
      <point x="1109" y="344"/>
      <point x="481" y="344" type="curve" smooth="yes"/>
      <point x="40" y="344"/>
      <point x="54" y="-292"/>
    </contour>
  </outline>
</glyph>
<glyph name="M" format="1">
  <advance width="2341"/>
  <unicode hex="004D"/>
  <outline>
    <contour>
      <point x="2286" y="63"/>
      <point x="1977" y="56"/>
      <point x="2037" y="298" type="curve" smooth="yes"/>
      <point x="2158" y="790"/>
      <point x="2439" y="1298"/>
      <point x="2439" y="1597" type="curve" smooth="yes"/>
      <point x="2439" y="1748"/>
      <point x="2343" y="1860"/>
      <point x="2166" y="1878" type="curve" smooth="yes"/>
      <point x="1975" y="1897"/>
      <point x="1699" y="1727"/>
      <point x="1542" y="1355" type="curve"/>
      <point x="1619" y="1710"/>
      <point x="1531" y="1862"/>
      <point x="1359" y="1878" type="curve" smooth="yes"/>
      <point x="930" y="1918"/>
      <point x="676" y="1405"/>
      <point x="506" y="971" type="curve"/>
      <point x="574" y="1222"/>
      <point x="630" y="1485"/>
      <point x="630" y="1619" type="curve" smooth="yes"/>
      <point x="630" y="1782"/>
      <point x="498" y="1879"/>
      <point x="358" y="1867" type="curve" smooth="yes"/>
      <point x="125" y="1847"/>
      <point x="-46" y="1670"/>
      <point x="-139" y="1478" type="curve" smooth="yes"/>
      <point x="-209" y="1334"/>
      <point x="6" y="1248"/>
      <point x="19" y="1283" type="curve" smooth="yes"/>
      <point x="68" y="1416"/>
      <point x="231" y="1672"/>
      <point x="333" y="1671" type="curve" smooth="yes"/>
      <point x="403" y="1670"/>
      <point x="402" y="1532"/>
      <point x="402" y="1504" type="curve" smooth="yes"/>
      <point x="402" y="1159"/>
      <point x="93" y="359"/>
      <point x="-78" y="-48" type="curve"/>
      <point x="-78" y="-49"/>
      <point x="-10" y="-122"/>
      <point x="82" y="-122" type="curve" smooth="yes"/>
      <point x="199" y="-122"/>
      <point x="231" y="4"/>
      <point x="259" y="65" type="curve" smooth="yes"/>
      <point x="610" y="826"/>
      <point x="923" y="1624"/>
      <point x="1256" y="1624" type="curve" smooth="yes"/>
      <point x="1336" y="1624"/>
      <point x="1368" y="1564"/>
      <point x="1368" y="1497" type="curve" smooth="yes"/>
      <point x="1368" y="1419"/>
      <point x="1317" y="1235"/>
      <point x="1261" y="1079" type="curve"/>
      <point x="1252" y="1061" type="line"/>
      <point x="819" y="-48" type="line"/>
      <point x="819" y="-49"/>
      <point x="887" y="-122"/>
      <point x="979" y="-122" type="curve" smooth="yes"/>
      <point x="1096" y="-122"/>
      <point x="1132" y="4"/>
      <point x="1156" y="65" type="curve" smooth="yes"/>
      <point x="1467" y="856"/>
      <point x="1670" y="1624"/>
      <point x="2063" y="1624" type="curve" smooth="yes"/>
      <point x="2143" y="1624"/>
      <point x="2175" y="1564"/>
      <point x="2175" y="1497" type="curve" smooth="yes"/>
      <point x="2175" y="1292"/>
      <point x="1893" y="755"/>
      <point x="1803" y="248" type="curve" smooth="yes"/>
      <point x="1769" y="54"/>
      <point x="1889" y="-92"/>
      <point x="2158" y="-92" type="curve" smooth="yes"/>
      <point x="2281" y="-92"/>
      <point x="2450" y="-12"/>
      <point x="2551" y="86" type="curve" smooth="yes"/>
      <point x="2706" y="238"/>
      <point x="2557" y="357"/>
      <point x="2451" y="242" type="curve" smooth="yes"/>
    </contour>
  </outline>
</glyph>
<glyph name="P" format="1">
  <advance width="1551"/>
  <unicode hex="0050"/>
  <outline>
    <contour>
      <point x="118" y="154"/>
      <point x="216" y="-293"/>
      <point x="536" y="-293" type="curve" smooth="yes"/>
      <point x="844" y="-293"/>
      <point x="929" y="-15"/>
      <point x="970" y="345" type="curve" smooth="yes"/>
      <point x="982" y="447"/>
      <point x="1022" y="747"/>
      <point x="1020" y="747" type="curve"/>
      <point x="1683" y="821"/>
      <point x="1882" y="1164"/>
      <point x="1882" y="1437" type="curve" smooth="yes"/>
      <point x="1882" y="1724"/>
      <point x="1588" y="2020"/>
      <point x="1022" y="2000" type="curve" smooth="yes"/>
      <point x="405" y="1978"/>
      <point x="118" y="1400"/>
      <point x="118" y="647" type="curve" smooth="yes"/>
    </contour>
    <contour>
      <point x="710" y="309"/>
      <point x="731" y="-60"/>
      <point x="570" y="-60" type="curve" smooth="yes"/>
      <point x="395" y="-60"/>
      <point x="375" y="358"/>
      <point x="375" y="647" type="curve" smooth="yes"/>
      <point x="375" y="1140"/>
      <point x="510" y="1736"/>
      <point x="999" y="1765" type="curve" smooth="yes"/>
      <point x="1422" y="1790"/>
      <point x="1605" y="1586"/>
      <point x="1605" y="1416" type="curve" smooth="yes"/>
      <point x="1605" y="1249"/>
      <point x="1484" y="1007"/>
      <point x="1043" y="957" type="curve"/>
      <point x="1054" y="1092"/>
      <point x="1173" y="1274"/>
      <point x="1209" y="1409" type="curve"/>
      <point x="1209" y="1469"/>
      <point x="1142" y="1492"/>
      <point x="1083" y="1492" type="curve" smooth="yes"/>
      <point x="885" y="1492"/>
      <point x="874" y="1224"/>
      <point x="804" y="966" type="curve"/>
      <point x="745" y="979"/>
      <point x="638" y="1051"/>
      <point x="576" y="1051" type="curve" smooth="yes"/>
      <point x="533" y="1051"/>
      <point x="533" y="997"/>
      <point x="533" y="954" type="curve" smooth="yes"/>
      <point x="533" y="813"/>
      <point x="660" y="785"/>
      <point x="772" y="740" type="curve"/>
    </contour>
  </outline>
</glyph>
<glyph name="Q" format="1">
  <advance width="1853"/>
  <unicode hex="0051"/>
  <outline>
    <contour>
      <point x="1515" y="-963" type="curve" smooth="yes"/>
      <point x="1733" y="-963"/>
      <point x="1804" y="-896"/>
      <point x="1855" y="-874" type="curve"/>
      <point x="1875" y="-860"/>
      <point x="1884" y="-841"/>
      <point x="1884" y="-821" type="curve" smooth="yes"/>
      <point x="1884" y="-773"/>
      <point x="1836" y="-719"/>
      <point x="1792" y="-719" type="curve" smooth="yes"/>
      <point x="1782" y="-719"/>
      <point x="1772" y="-722"/>
      <point x="1763" y="-728" type="curve"/>
      <point x="1703" y="-741"/>
      <point x="1645" y="-752"/>
      <point x="1590" y="-752" type="curve" smooth="yes"/>
      <point x="1368" y="-752"/>
      <point x="1135" y="-403"/>
      <point x="1041" y="492" type="curve" smooth="yes"/>
      <point x="1035" y="550"/>
      <point x="844" y="518"/>
      <point x="850" y="460" type="curve" smooth="yes"/>
      <point x="934" y="-343"/>
      <point x="1058" y="-963"/>
    </contour>
    <contour>
      <point x="882" y="-70" type="curve" smooth="yes"/>
      <point x="561" y="-70"/>
      <point x="411" y="278"/>
      <point x="411" y="536" type="curve" smooth="yes"/>
      <point x="411" y="965"/>
      <point x="649" y="1638"/>
      <point x="1157" y="1638" type="curve" smooth="yes"/>
      <point x="1460" y="1638"/>
      <point x="1575" y="1333"/>
      <point x="1575" y="1041" type="curve" smooth="yes"/>
      <point x="1575" y="644"/>
      <point x="1383" y="-70"/>
    </contour>
    <contour>
      <point x="863" y="-303" type="curve" smooth="yes"/>
      <point x="1513" y="-303"/>
      <point x="1845" y="438"/>
      <point x="1845" y="991.999" type="curve" smooth="yes"/>
      <point x="1845" y="1458"/>
      <point x="1606" y="1867"/>
      <point x="1143" y="1867" type="curve" smooth="yes"/>
      <point x="524" y="1867"/>
      <point x="150" y="1186"/>
      <point x="150" y="543" type="curve" smooth="yes"/>
      <point x="150" y="146"/>
      <point x="396" y="-303"/>
    </contour>
  </outline>
</glyph>
<glyph name="R" format="1">
  <advance width="2036"/>
  <unicode hex="0052"/>
  <outline>
    <contour>
      <point x="1194" y="900" type="curve"/>
      <point x="1283" y="463"/>
      <point x="1382" y="-301"/>
      <point x="1848" y="-301" type="curve" smooth="yes"/>
      <point x="2071" y="-301"/>
      <point x="2143" y="-233"/>
      <point x="2195" y="-211" type="curve"/>
      <point x="2215" y="-196"/>
      <point x="2225" y="-177"/>
      <point x="2225" y="-156" type="curve" smooth="yes"/>
      <point x="2225" y="-107"/>
      <point x="2176" y="-52"/>
      <point x="2131" y="-52" type="curve" smooth="yes"/>
      <point x="2063" y="-52"/>
      <point x="1991" y="-86"/>
      <point x="1925" y="-86" type="curve" smooth="yes"/>
      <point x="1698" y="-86"/>
      <point x="1523" y="423"/>
      <point x="1419" y="926" type="curve"/>
      <point x="1666" y="983"/>
      <point x="1896" y="1063"/>
      <point x="1928" y="1387" type="curve" smooth="yes"/>
      <point x="1960" y="1715"/>
      <point x="1649" y="1997"/>
      <point x="1163" y="1997" type="curve" smooth="yes"/>
      <point x="469" y="1997"/>
      <point x="95" y="1487"/>
      <point x="130" y="454" type="curve" smooth="yes"/>
      <point x="143" y="87"/>
      <point x="225" y="-325"/>
      <point x="583" y="-325" type="curve" smooth="yes"/>
      <point x="1056" y="-325"/>
      <point x="1037" y="803"/>
      <point x="1092" y="1092" type="curve" smooth="yes"/>
      <point x="1118" y="1227"/>
      <point x="1205" y="1314"/>
      <point x="1207" y="1398" type="curve" smooth="yes"/>
      <point x="1207" y="1455"/>
      <point x="1160" y="1484"/>
      <point x="1095" y="1484" type="curve" smooth="yes"/>
      <point x="957" y="1484"/>
      <point x="899" y="1261"/>
      <point x="870" y="1121" type="curve" smooth="yes"/>
      <point x="815" y="824"/>
      <point x="760" y="-90"/>
      <point x="596" y="-91" type="curve" smooth="yes"/>
      <point x="448" y="-92"/>
      <point x="405" y="149"/>
      <point x="391" y="419" type="curve" smooth="yes"/>
      <point x="348" y="1224"/>
      <point x="529" y="1758"/>
      <point x="1104" y="1758" type="curve" smooth="yes"/>
      <point x="1466" y="1758"/>
      <point x="1656" y="1556"/>
      <point x="1636" y="1373" type="curve" smooth="yes"/>
      <point x="1609" y="1129"/>
      <point x="1414" y="1077"/>
      <point x="991" y="1077" type="curve" smooth="yes"/>
      <point x="899" y="1077"/>
      <point x="756" y="1107"/>
      <point x="715" y="1107" type="curve" smooth="yes"/>
      <point x="670" y="1107"/>
      <point x="661" y="1060"/>
      <point x="661" y="1023" type="curve" smooth="yes"/>
      <point x="661" y="879"/>
      <point x="955" y="876"/>
    </contour>
  </outline>
</glyph>
<glyph name="V" format="1">
  <advance width="1236"/>
  <unicode hex="0056"/>
  <outline>
    <contour>
      <point x="360" y="-170" type="curve" smooth="yes"/>
      <point x="449" y="-187"/>
      <point x="513" y="-166"/>
      <point x="606" y="0" type="curve" smooth="yes"/>
      <point x="1440" y="1394" type="line" smooth="yes"/>
      <point x="1570" y="1626"/>
      <point x="1572" y="1686"/>
      <point x="1437" y="1686" type="curve" smooth="yes"/>
      <point x="1381" y="1686"/>
      <point x="1310" y="1636"/>
      <point x="1268" y="1559" type="curve" smooth="yes"/>
      <point x="459" y="139" type="line"/>
      <point x="372" y="1580" type="line" smooth="yes"/>
      <point x="368" y="1675"/>
      <point x="347" y="1730"/>
      <point x="251" y="1730" type="curve" smooth="yes"/>
      <point x="156" y="1730"/>
      <point x="109" y="1683"/>
      <point x="109" y="1590" type="curve" smooth="yes"/>
      <point x="109" y="1583"/>
      <point x="109.472" y="1575.04"/>
      <point x="189" y="363" type="curve" smooth="yes"/>
      <point x="219" y="-97"/>
      <point x="247" y="-148"/>
    </contour>
  </outline>
</glyph>
<glyph name="W" format="1">
  <advance width="2192"/>
  <unicode hex="0057"/>
  <outline>
    <contour>
      <point x="1772" y="340" type="line"/>
      <point x="1864" y="67"/>
      <point x="2197" y="66"/>
      <point x="2458" y="339" type="curve"/>
      <point x="2384" y="449" type="line"/>
      <point x="2204" y="305"/>
      <point x="1880" y="208"/>
      <point x="1997" y="540" type="curve"/>
    </contour>
    <contour>
      <point x="1422" y="-101" type="curve" smooth="yes"/>
      <point x="1903" y="-121"/>
      <point x="2105" y="742"/>
      <point x="2207" y="1649" type="curve" smooth="yes"/>
      <point x="2215" y="1724"/>
      <point x="2178" y="1760"/>
      <point x="2112" y="1760" type="curve" smooth="yes"/>
      <point x="2008" y="1760"/>
      <point x="1975" y="1741"/>
      <point x="1953" y="1625" type="curve" smooth="yes"/>
      <point x="1926" y="1475"/>
      <point x="1735" y="225"/>
      <point x="1458" y="151" type="curve" smooth="yes"/>
      <point x="1142" y="67"/>
      <point x="1223" y="764"/>
      <point x="1312" y="1168" type="curve" smooth="yes"/>
      <point x="1358" y="1379"/>
      <point x="1384" y="1502"/>
      <point x="1409" y="1612" type="curve" smooth="yes"/>
      <point x="1426" y="1687"/>
      <point x="1369" y="1710"/>
      <point x="1307" y="1710" type="curve" smooth="yes"/>
      <point x="1196" y="1710"/>
      <point x="1165" y="1627"/>
      <point x="1137" y="1509" type="curve" smooth="yes"/>
      <point x="1080" y="1270"/>
      <point x="1001" y="970.999"/>
      <point x="950" y="786" type="curve" smooth="yes"/>
      <point x="864" y="474"/>
      <point x="687" y="145"/>
      <point x="466" y="145" type="curve" smooth="yes"/>
      <point x="359" y="145"/>
      <point x="318" y="282"/>
      <point x="328" y="457" type="curve" smooth="yes"/>
      <point x="341" y="719"/>
      <point x="454" y="1091"/>
      <point x="485" y="1190" type="curve" smooth="yes"/>
      <point x="530" y="1335"/>
      <point x="583" y="1505"/>
      <point x="626" y="1659" type="curve" smooth="yes"/>
      <point x="639.333" y="1712.33"/>
      <point x="597.059" y="1751"/>
      <point x="530" y="1751" type="curve" smooth="yes"/>
      <point x="408" y="1751"/>
      <point x="376" y="1643"/>
      <point x="332" y="1541" type="curve" smooth="yes"/>
      <point x="261" y="1372"/>
      <point x="92.9999" y="872"/>
      <point x="73" y="495" type="curve" smooth="yes"/>
      <point x="55" y="162"/>
      <point x="123" y="-98"/>
      <point x="430" y="-98" type="curve" smooth="yes"/>
      <point x="727" y="-98"/>
      <point x="955" y="226"/>
      <point x="1036" y="535" type="curve"/>
      <point x="1031" y="246"/>
      <point x="1126" y="-89"/>
    </contour>
  </outline>
</glyph>
<glyph name="c" format="1">
  <advance width="827"/>
  <unicode hex="0063"/>
  <outline>
    <contour>
      <point x="64" y="368" type="curve" smooth="yes"/>
      <point x="64" y="66"/>
      <point x="318" y="-17"/>
      <point x="473" y="-17" type="curve" smooth="yes"/>
      <point x="721" y="-17"/>
      <point x="888" y="152"/>
      <point x="964" y="267" type="curve" smooth="yes"/>
      <point x="972" y="279"/>
      <point x="976" y="294"/>
      <point x="976" y="309" type="curve" smooth="yes"/>
      <point x="976" y="349"/>
      <point x="949" y="389"/>
      <point x="915" y="389" type="curve" smooth="yes"/>
      <point x="913" y="389"/>
      <point x="910" y="389"/>
      <point x="908" y="388" type="curve" smooth="yes"/>
      <point x="899" y="387"/>
      <point x="889" y="382"/>
      <point x="880" y="374" type="curve" smooth="yes"/>
      <point x="760" y="272"/>
      <point x="650" y="153"/>
      <point x="504" y="153" type="curve" smooth="yes"/>
      <point x="369" y="153"/>
      <point x="278" y="241"/>
      <point x="283" y="395" type="curve" smooth="yes"/>
      <point x="292" y="669"/>
      <point x="445" y="777"/>
      <point x="546" y="777" type="curve" smooth="yes"/>
      <point x="597" y="777"/>
      <point x="636" y="748"/>
      <point x="636" y="707" type="curve" smooth="yes"/>
      <point x="636" y="650"/>
      <point x="600" y="643"/>
      <point x="600" y="603" type="curve" smooth="yes"/>
      <point x="600" y="562"/>
      <point x="631" y="522"/>
      <point x="674" y="522" type="curve" smooth="yes"/>
      <point x="737" y="522"/>
      <point x="832" y="613"/>
      <point x="832" y="735" type="curve" smooth="yes"/>
      <point x="832" y="855"/>
      <point x="729" y="966"/>
      <point x="559" y="966" type="curve" smooth="yes"/>
      <point x="199" y="966"/>
      <point x="64" y="544"/>
    </contour>
  </outline>
</glyph>
<glyph name="g" format="1">
  <advance width="1052"/>
  <unicode hex="0067"/>
  <outline>
    <contour>
      <point x="209" y="-928" type="curve" smooth="yes"/>
      <point x="269" y="-928"/>
      <point x="327" y="-918"/>
      <point x="377" y="-898" type="curve" smooth="yes"/>
      <point x="665" y="-780"/>
      <point x="759" y="-453"/>
      <point x="825" y="-108" type="curve"/>
      <point x="1030" y="31"/>
      <point x="1227" y="118"/>
      <point x="1366" y="214" type="curve" smooth="yes"/>
      <point x="1487" y="299"/>
      <point x="1403" y="412"/>
      <point x="1310" y="392" type="curve" smooth="yes"/>
      <point x="1214" y="371"/>
      <point x="993.999" y="229"/>
      <point x="854" y="114" type="curve"/>
      <point x="994.999" y="795" type="line" smooth="yes"/>
      <point x="1010" y="868"/>
      <point x="928" y="925"/>
      <point x="830" y="885" type="curve"/>
      <point x="829" y="885"/>
      <point x="839" y="953"/>
      <point x="728" y="956" type="curve" smooth="yes"/>
      <point x="409" y="965"/>
      <point x="105" y="648"/>
      <point x="105" y="281" type="curve" smooth="yes"/>
      <point x="105" y="123"/>
      <point x="210" y="0"/>
      <point x="375" y="0" type="curve" smooth="yes"/>
      <point x="474" y="0"/>
      <point x="558" y="55"/>
      <point x="619" y="105" type="curve"/>
      <point x="589" y="12" type="line"/>
      <point x="437" y="-104"/>
      <point x="286" y="-237"/>
      <point x="162" y="-378" type="curve" smooth="yes"/>
      <point x="84" y="-466"/>
      <point x="-33" y="-588"/>
      <point x="-33" y="-729" type="curve" smooth="yes"/>
      <point x="-33" y="-870"/>
      <point x="62" y="-928"/>
    </contour>
    <contour>
      <point x="220" y="-754" type="curve" smooth="yes"/>
      <point x="191" y="-754"/>
      <point x="178" y="-724"/>
      <point x="178" y="-699" type="curve" smooth="yes"/>
      <point x="178" y="-550"/>
      <point x="368" y="-397"/>
      <point x="573" y="-226" type="curve"/>
      <point x="538" y="-387"/>
      <point x="431" y="-754"/>
    </contour>
    <contour>
      <point x="449" y="192" type="curve" smooth="yes"/>
      <point x="365" y="192"/>
      <point x="346" y="260"/>
      <point x="346" y="324" type="curve" smooth="yes"/>
      <point x="346" y="508"/>
      <point x="508" y="773"/>
      <point x="755" y="773" type="curve"/>
      <point x="675" y="474" type="line" smooth="yes"/>
      <point x="649" y="380"/>
      <point x="591" y="192"/>
    </contour>
  </outline>
</glyph>
<glyph name="i" format="1">
  <advance width="601"/>
  <unicode hex="0069"/>
  <outline>
    <contour>
      <point x="589" y="1152" type="curve" smooth="yes"/>
      <point x="699" y="1152"/>
      <point x="773" y="1218"/>
      <point x="773" y="1331" type="curve" smooth="yes"/>
      <point x="773" y="1429"/>
      <point x="705" y="1471"/>
      <point x="613" y="1471" type="curve" smooth="yes"/>
      <point x="503" y="1471"/>
      <point x="417" y="1408"/>
      <point x="417" y="1304" type="curve" smooth="yes"/>
      <point x="417" y="1203"/>
      <point x="482" y="1152"/>
    </contour>
    <contour>
      <point x="356" y="-6" type="curve" smooth="yes"/>
      <point x="510" y="-27"/>
      <point x="698" y="57"/>
      <point x="855" y="247" type="curve" smooth="yes"/>
      <point x="875" y="272"/>
      <point x="886" y="286"/>
      <point x="887" y="307" type="curve" smooth="yes"/>
      <point x="890" y="368"/>
      <point x="843" y="404"/>
      <point x="793" y="403" type="curve" smooth="yes"/>
      <point x="772" y="403"/>
      <point x="756" y="393"/>
      <point x="741" y="375" type="curve" smooth="yes"/>
      <point x="516" y="118"/>
      <point x="342" y="124"/>
      <point x="342" y="315" type="curve" smooth="yes"/>
      <point x="342" y="457"/>
      <point x="440" y="724"/>
      <point x="514" y="863" type="curve" smooth="yes"/>
      <point x="543.4" y="916.9"/>
      <point x="474.744" y="960"/>
      <point x="427" y="960" type="curve" smooth="yes"/>
      <point x="364" y="960"/>
      <point x="320" y="951"/>
      <point x="278" y="873" type="curve" smooth="yes"/>
      <point x="197" y="722"/>
      <point x="114" y="458"/>
      <point x="114" y="282" type="curve" smooth="yes"/>
      <point x="114" y="124"/>
      <point x="212" y="14"/>
    </contour>
  </outline>
</glyph>
<glyph name="p" format="1">
  <advance width="984"/>
  <unicode hex="0070"/>
  <outline>
    <contour>
      <point x="879" y="330" type="curve" smooth="yes"/>
      <point x="988.999" y="330"/>
      <point x="1178" y="411"/>
      <point x="1273" y="537" type="curve"/>
      <point x="1290" y="552"/>
      <point x="1298" y="574"/>
      <point x="1298" y="597" type="curve" smooth="yes"/>
      <point x="1298" y="640"/>
      <point x="1272" y="685"/>
      <point x="1238" y="685" type="curve" smooth="yes"/>
      <point x="1229" y="685"/>
      <point x="1219" y="681"/>
      <point x="1209" y="674" type="curve"/>
      <point x="1110" y="576"/>
      <point x="979.999" y="546"/>
      <point x="936" y="546" type="curve" smooth="yes"/>
      <point x="928" y="546"/>
      <point x="819" y="704"/>
      <point x="748" y="704" type="curve" smooth="yes"/>
      <point x="733" y="704"/>
      <point x="719" y="697"/>
      <point x="709" y="680" type="curve"/>
      <point x="672" y="602"/>
      <point x="655" y="538"/>
      <point x="655" y="488" type="curve" smooth="yes"/>
      <point x="655" y="376"/>
      <point x="740" y="330"/>
    </contour>
    <contour>
      <point x="44" y="-500" type="curve" smooth="yes"/>
      <point x="103" y="-500"/>
      <point x="193" y="-445"/>
      <point x="203" y="-398" type="curve"/>
      <point x="226" y="-314"/>
      <point x="273" y="-22"/>
      <point x="290" y="63" type="curve"/>
      <point x="347" y="11"/>
      <point x="408" y="-16"/>
      <point x="469" y="-16" type="curve" smooth="yes"/>
      <point x="763" y="-16"/>
      <point x="942" y="330"/>
      <point x="942" y="616" type="curve" smooth="yes"/>
      <point x="942" y="805"/>
      <point x="852" y="966"/>
      <point x="651" y="966" type="curve" smooth="yes"/>
      <point x="239" y="966"/>
      <point x="130" y="535"/>
      <point x="95.9999" y="254" type="curve" smooth="yes"/>
      <point x="89" y="192"/>
      <point x="12" y="-159"/>
      <point x="-12" y="-425" type="curve"/>
      <point x="-12" y="-451.667"/>
      <point x="5.17647" y="-500"/>
    </contour>
    <contour>
      <point x="464" y="182" type="curve" smooth="yes"/>
      <point x="417" y="182"/>
      <point x="367" y="199"/>
      <point x="314" y="239" type="curve"/>
      <point x="348" y="386"/>
      <point x="369" y="774"/>
      <point x="604" y="774" type="curve" smooth="yes"/>
      <point x="685" y="774"/>
      <point x="739" y="673"/>
      <point x="739" y="558" type="curve" smooth="yes"/>
      <point x="739" y="382"/>
      <point x="624" y="182"/>
    </contour>
  </outline>
</glyph>
<glyph name="r" format="1">
  <advance width="843"/>
  <unicode hex="0072"/>
  <outline>
    <contour>
      <point x="227" y="0" type="curve" smooth="yes"/>
      <point x="305" y="0"/>
      <point x="332" y="28"/>
      <point x="353" y="77" type="curve"/>
      <point x="511" y="510"/>
      <point x="674" y="747"/>
      <point x="670" y="734" type="curve" smooth="yes"/>
      <point x="602" y="533"/>
      <point x="625" y="269"/>
      <point x="859" y="300" type="curve" smooth="yes"/>
      <point x="958" y="313"/>
      <point x="1046" y="372"/>
      <point x="1096" y="437" type="curve" smooth="yes"/>
      <point x="1163" y="524"/>
      <point x="1083" y="639"/>
      <point x="998.999" y="555" type="curve" smooth="yes"/>
      <point x="871" y="428"/>
      <point x="778" y="454"/>
      <point x="819" y="624" type="curve" smooth="yes"/>
      <point x="869" y="830"/>
      <point x="910" y="963"/>
      <point x="744" y="963" type="curve" smooth="yes"/>
      <point x="613" y="963"/>
      <point x="372" y="558"/>
      <point x="311" y="368" type="curve"/>
      <point x="340" y="522"/>
      <point x="398" y="763"/>
      <point x="422" y="860" type="curve" smooth="yes"/>
      <point x="435" y="911"/>
      <point x="399" y="964"/>
      <point x="340" y="964" type="curve" smooth="yes"/>
      <point x="269" y="964"/>
      <point x="231" y="929"/>
      <point x="201" y="833" type="curve" smooth="yes"/>
      <point x="146" y="658"/>
      <point x="110" y="417"/>
      <point x="108" y="216" type="curve" smooth="yes"/>
      <point x="107" y="107"/>
      <point x="118" y="0"/>
    </contour>
  </outline>
</glyph>
<glyph name="s" format="1">
  <advance width="896"/>
  <unicode hex="0073"/>
  <outline>
    <contour>
      <point x="487" y="-16" type="curve" smooth="yes"/>
      <point x="810" y="-16"/>
      <point x="1036" y="130"/>
      <point x="1191" y="279" type="curve"/>
      <point x="1231" y="323"/>
      <point x="1166" y="485"/>
      <point x="1099" y="418" type="curve" smooth="yes"/>
      <point x="1055" y="374"/>
      <point x="933" y="257"/>
      <point x="785" y="213" type="curve"/>
      <point x="926" y="473"/>
      <point x="613" y="690"/>
      <point x="688" y="792" type="curve" smooth="yes"/>
      <point x="787" y="928"/>
      <point x="598" y="1061"/>
      <point x="484" y="898" type="curve" smooth="yes"/>
      <point x="411" y="788"/>
      <point x="108" y="349"/>
      <point x="23" y="236" type="curve"/>
      <point x="166" y="20"/>
      <point x="385" y="-16"/>
    </contour>
    <contour>
      <point x="442" y="151" type="curve" smooth="yes"/>
      <point x="382" y="153"/>
      <point x="326" y="193"/>
      <point x="280" y="231" type="curve"/>
      <point x="320" y="288.5"/>
      <point x="385.75" y="386.75"/>
      <point x="441.5" y="470.625" type="curve" smooth="yes"/>
      <point x="497.25" y="554.5"/>
      <point x="543" y="624"/>
      <point x="543" y="624" type="curve"/>
      <point x="670" y="341"/>
      <point x="640" y="144"/>
    </contour>
  </outline>
</glyph>
<glyph name="w" format="1">
  <advance width="1367"/>
  <unicode hex="0077"/>
  <outline>
    <contour>
      <point x="295" y="3" type="curve" smooth="yes"/>
      <point x="319" y="3"/>
      <point x="368" y="25"/>
      <point x="397" y="78" type="curve" smooth="yes"/>
      <point x="475" y="222"/>
      <point x="530" y="349"/>
      <point x="588" y="479" type="curve" smooth="yes"/>
      <point x="643" y="603" type="line"/>
      <point x="643" y="603"/>
      <point x="644" y="442"/>
      <point x="644" y="348" type="curve" smooth="yes"/>
      <point x="644" y="183"/>
      <point x="699" y="3"/>
      <point x="810" y="3" type="curve" smooth="yes"/>
      <point x="906" y="3"/>
      <point x="1006" y="219"/>
      <point x="1054" y="347" type="curve"/>
      <point x="1053" y="44"/>
      <point x="1445" y="-8"/>
      <point x="1742" y="244" type="curve" smooth="yes"/>
      <point x="1790" y="285"/>
      <point x="1715" y="402"/>
      <point x="1649" y="355" type="curve" smooth="yes"/>
      <point x="1398" y="177"/>
      <point x="1095" y="273"/>
      <point x="1185" y="544" type="curve" smooth="yes"/>
      <point x="1252.06" y="747.529"/>
      <point x="1311" y="850.667"/>
      <point x="1311" y="884" type="curve" smooth="yes"/>
      <point x="1311" y="932"/>
      <point x="1262" y="960"/>
      <point x="1224" y="960" type="curve" smooth="yes"/>
      <point x="1160" y="960"/>
      <point x="1097" y="932"/>
      <point x="1081" y="891" type="curve" smooth="yes"/>
      <point x="827" y="236" type="line"/>
      <point x="833" y="294" type="line"/>
      <point x="858.165" y="901.997"/>
      <point x="859" y="904"/>
      <point x="859" y="906" type="curve" smooth="yes"/>
      <point x="859" y="942"/>
      <point x="815" y="959"/>
      <point x="768" y="959" type="curve" smooth="yes"/>
      <point x="651" y="959"/>
      <point x="631" y="896"/>
      <point x="593" y="812" type="curve" smooth="yes"/>
      <point x="528" y="670"/>
      <point x="438" y="484"/>
      <point x="370" y="325" type="curve" smooth="yes"/>
      <point x="352" y="284" type="line"/>
      <point x="422" y="898" type="line"/>
      <point x="422" y="942"/>
      <point x="381" y="959"/>
      <point x="334" y="959" type="curve"/>
      <point x="276.242" y="963.813"/>
      <point x="249.933" y="940.968"/>
      <point x="229.686" y="907.394" type="curve" smooth="yes"/>
      <point x="165.059" y="800.227"/>
      <point x="161" y="555.086"/>
      <point x="161" y="383" type="curve" smooth="yes"/>
      <point x="161" y="137"/>
      <point x="178" y="3"/>
    </contour>
  </outline>
</glyph>
<glyph name="bar" format="1">
  <advance width="1248"/>
  <unicode hex="007C"/>
  <outline>
    <contour>
      <point x="584" y="-43" type="curve"/>
      <point x="584" y="-41"/>
      <point x="583" y="-38"/>
      <point x="579" y="-32" type="curve"/>
      <point x="671" y="-32"/>
      <point x="738" y="43"/>
      <point x="750" y="128" type="curve" smooth="yes"/>
      <point x="796" y="441"/>
      <point x="843" y="765"/>
      <point x="891" y="1080" type="curve" smooth="yes"/>
      <point x="924" y="1299"/>
      <point x="986.999" y="1519"/>
      <point x="986.999" y="1739" type="curve" smooth="yes"/>
      <point x="986.999" y="1797"/>
      <point x="952" y="1856"/>
      <point x="892" y="1856" type="curve" smooth="yes"/>
      <point x="792" y="1856"/>
      <point x="729" y="1785"/>
      <point x="715" y="1696" type="curve" smooth="yes"/>
      <point x="672" y="1433"/>
      <point x="625" y="1148"/>
      <point x="582" y="877" type="curve" smooth="yes"/>
      <point x="544" y="636"/>
      <point x="472" y="373"/>
      <point x="472" y="129" type="curve" smooth="yes"/>
      <point x="472" y="64"/>
      <point x="574" y="-43"/>
    </contour>
    <contour>
      <point x="584" y="-44"/>
      <point x="585" y="-43"/>
      <point x="584" y="-43" type="curve"/>
    </contour>
  </outline>
</glyph>
<glyph name="ordfeminine" format="1">
  <advance width="928"/>
  <unicode hex="00AA"/>
  <outline>
    <contour>
      <point x="353" y="968.999" type="curve" smooth="yes"/>
      <point x="297" y="968.999"/>
      <point x="285" y="1027"/>
      <point x="285" y="1084" type="curve" smooth="yes"/>
      <point x="285" y="1240"/>
      <point x="396" y="1467"/>
      <point x="554" y="1467" type="curve"/>
      <point x="501" y="1213" type="line" smooth="yes"/>
      <point x="484" y="1130"/>
      <point x="448" y="968.999"/>
    </contour>
    <contour>
      <point x="712" y="799" type="curve" smooth="yes"/>
      <point x="853" y="799"/>
      <point x="963" y="931"/>
      <point x="1024" y="1016" type="curve"/>
      <point x="982.999" y="1207" type="line"/>
      <point x="954" y="1168"/>
      <point x="926" y="1133"/>
      <point x="897" y="1102" type="curve" smooth="yes"/>
      <point x="863" y="1064"/>
      <point x="807" y="996.999"/>
      <point x="739" y="996.999" type="curve" smooth="yes"/>
      <point x="702" y="996.999"/>
      <point x="701" y="1041"/>
      <point x="701" y="1084" type="curve" smooth="yes"/>
      <point x="701" y="1228"/>
      <point x="756" y="1346"/>
      <point x="756" y="1487" type="curve" smooth="yes"/>
      <point x="756" y="1566"/>
      <point x="722" y="1567"/>
      <point x="650" y="1567" type="curve" smooth="yes"/>
      <point x="642" y="1567" type="line" smooth="yes"/>
      <point x="580" y="1567"/>
      <point x="590" y="1632"/>
      <point x="530" y="1632" type="curve" smooth="yes"/>
      <point x="490" y="1632"/>
      <point x="450" y="1623"/>
      <point x="412" y="1606" type="curve" smooth="yes"/>
      <point x="229" y="1525"/>
      <point x="64" y="1308"/>
      <point x="64" y="1047" type="curve" smooth="yes"/>
      <point x="64" y="910"/>
      <point x="147" y="802"/>
      <point x="281" y="802" type="curve" smooth="yes"/>
      <point x="398" y="802"/>
      <point x="495" y="879"/>
      <point x="551" y="943" type="curve"/>
      <point x="581" y="869"/>
      <point x="621" y="799"/>
    </contour>
  </outline>
</glyph>
<glyph name="Acircumflex" format="1">
  <advance width="1920"/>
  <unicode hex="00C2"/>
  <outline>
    <contour>
      <point x="812" y="-175" type="curve" smooth="yes"/>
      <point x="1070" y="-175"/>
      <point x="1275" y="-29"/>
      <point x="1349" y="173" type="curve"/>
      <point x="1340" y="144"/>
      <point x="1335" y="117"/>
      <point x="1335" y="90" type="curve" smooth="yes"/>
      <point x="1335" y="-42"/>
      <point x="1390" y="-142"/>
      <point x="1526" y="-160" type="curve" smooth="yes"/>
      <point x="1678" y="-180"/>
      <point x="1838" y="-99"/>
      <point x="1934" y="13" type="curve" smooth="yes"/>
      <point x="1996" y="86"/>
      <point x="1893" y="222"/>
      <point x="1832" y="168" type="curve" smooth="yes"/>
      <point x="1771" y="114"/>
      <point x="1697" y="46"/>
      <point x="1646" y="46" type="curve" smooth="yes"/>
      <point x="1586" y="46"/>
      <point x="1578" y="164"/>
      <point x="1645" y="472" type="curve" smooth="yes"/>
      <point x="1848" y="1398" type="line" smooth="yes"/>
      <point x="1875" y="1523"/>
      <point x="1643" y="1584"/>
      <point x="1615" y="1459" type="curve" smooth="yes"/>
      <point x="1428" y="634" type="line" smooth="yes"/>
      <point x="1358" y="324"/>
      <point x="1151" y="49"/>
      <point x="849" y="49" type="curve" smooth="yes"/>
      <point x="660" y="49"/>
      <point x="508" y="160"/>
      <point x="461" y="357" type="curve" smooth="yes"/>
      <point x="290" y="1081"/>
      <point x="998.999" y="1794"/>
      <point x="1596" y="1734" type="curve" smooth="yes"/>
      <point x="1869" y="1707"/>
      <point x="2035" y="1540"/>
      <point x="2065" y="1535" type="curve"/>
      <point x="2172" y="1452"/>
      <point x="2293" y="1587"/>
      <point x="2190" y="1694" type="curve" smooth="yes"/>
      <point x="2064" y="1825"/>
      <point x="1845" y="1942"/>
      <point x="1584" y="1958" type="curve" smooth="yes"/>
      <point x="767" y="2008"/>
      <point x="3" y="1136"/>
      <point x="174" y="349" type="curve" smooth="yes"/>
      <point x="239" y="51"/>
      <point x="437" y="-175"/>
    </contour>
    <contour>
      <point x="1566" y="1928" type="curve" smooth="yes"/>
      <point x="1644" y="1928"/>
      <point x="1693" y="1974"/>
      <point x="1693" y="2041" type="curve" smooth="yes"/>
      <point x="1693" y="2159"/>
      <point x="1656" y="2249"/>
      <point x="1633" y="2354" type="curve" smooth="yes"/>
      <point x="1608" y="2468"/>
      <point x="1588" y="2604"/>
      <point x="1468" y="2604" type="curve" smooth="yes"/>
      <point x="1314" y="2604"/>
      <point x="1279" y="2486"/>
      <point x="1224" y="2390" type="curve" smooth="yes"/>
      <point x="1025" y="2061" type="line" smooth="yes"/>
      <point x="1017" y="2048"/>
      <point x="1013" y="2036"/>
      <point x="1013" y="2023" type="curve" smooth="yes"/>
      <point x="1013" y="1980"/>
      <point x="1038" y="1932"/>
      <point x="1073" y="1932" type="curve" smooth="yes"/>
      <point x="1182" y="1932"/>
      <point x="1211" y="1983"/>
      <point x="1247" y="2060" type="curve" smooth="yes"/>
      <point x="1308" y="2190"/>
      <point x="1370" y="2309"/>
      <point x="1434" y="2440" type="curve"/>
      <point x="1447" y="2322"/>
      <point x="1444" y="1928"/>
    </contour>
  </outline>
</glyph>
<glyph name="Egrave" format="1">
  <advance width="1618"/>
  <unicode hex="00C8"/>
  <outline>
    <contour>
      <point x="740" y="-303" type="curve" smooth="yes"/>
      <point x="1158" y="-303"/>
      <point x="1527" y="-66"/>
      <point x="1780" y="250" type="curve" smooth="yes"/>
      <point x="1861" y="351"/>
      <point x="1740" y="534"/>
      <point x="1629" y="401" type="curve" smooth="yes"/>
      <point x="1399" y="125"/>
      <point x="1102" y="-62"/>
      <point x="749" y="-62" type="curve" smooth="yes"/>
      <point x="545" y="-62"/>
      <point x="433" y="37"/>
      <point x="418" y="239" type="curve" smooth="yes"/>
      <point x="399" y="502"/>
      <point x="618" y="694"/>
      <point x="1047" y="694" type="curve" smooth="yes"/>
      <point x="1239" y="694"/>
      <point x="1258" y="914"/>
      <point x="1117" y="945" type="curve" smooth="yes"/>
      <point x="941" y="983.999"/>
      <point x="593" y="1077"/>
      <point x="616" y="1359" type="curve" smooth="yes"/>
      <point x="648" y="1751"/>
      <point x="1313" y="1680"/>
      <point x="1533" y="1501" type="curve"/>
      <point x="1453" y="1313" type="line" smooth="yes"/>
      <point x="1372" y="1124"/>
      <point x="1780" y="1109"/>
      <point x="1761" y="1438" type="curve" smooth="yes"/>
      <point x="1743" y="1743"/>
      <point x="1363" y="1867"/>
      <point x="1038" y="1867" type="curve" smooth="yes"/>
      <point x="692" y="1867"/>
      <point x="362" y="1742"/>
      <point x="332" y="1385" type="curve" smooth="yes"/>
      <point x="308" y="1105"/>
      <point x="503" y="905"/>
      <point x="874" y="855" type="curve"/>
      <point x="487" y="845"/>
      <point x="119" y="622"/>
      <point x="119" y="233" type="curve" smooth="yes"/>
      <point x="119" y="-121"/>
      <point x="392" y="-303"/>
    </contour>
    <contour>
      <point x="963" y="1928" type="curve" smooth="yes"/>
      <point x="997.999" y="1928"/>
      <point x="1021" y="1959"/>
      <point x="1021" y="1995" type="curve" smooth="yes"/>
      <point x="1021" y="2013"/>
      <point x="1018" y="2029"/>
      <point x="1011" y="2043" type="curve"/>
      <point x="942" y="2194"/>
      <point x="886" y="2331"/>
      <point x="819" y="2486" type="curve" smooth="yes"/>
      <point x="803" y="2523"/>
      <point x="771" y="2550"/>
      <point x="724" y="2550" type="curve" smooth="yes"/>
      <point x="646" y="2550"/>
      <point x="579" y="2492"/>
      <point x="579" y="2414" type="curve" smooth="yes"/>
      <point x="579" y="2384"/>
      <point x="591" y="2352"/>
      <point x="616" y="2317" type="curve" smooth="yes"/>
      <point x="678" y="2232"/>
      <point x="750" y="2142"/>
      <point x="817" y="2060" type="curve" smooth="yes"/>
      <point x="852" y="2017"/>
      <point x="895" y="1928"/>
    </contour>
  </outline>
</glyph>
<glyph name="Ograve" format="1">
  <advance width="1853"/>
  <unicode hex="00D2"/>
  <outline>
    <contour>
      <point x="882" y="-70" type="curve" smooth="yes"/>
      <point x="561" y="-70"/>
      <point x="411" y="278"/>
      <point x="411" y="536" type="curve" smooth="yes"/>
      <point x="411" y="965"/>
      <point x="649" y="1638"/>
      <point x="1157" y="1638" type="curve" smooth="yes"/>
      <point x="1460" y="1638"/>
      <point x="1575" y="1333"/>
      <point x="1575" y="1041" type="curve" smooth="yes"/>
      <point x="1575" y="644"/>
      <point x="1383" y="-70"/>
    </contour>
    <contour>
      <point x="863" y="-303" type="curve" smooth="yes"/>
      <point x="1513" y="-303"/>
      <point x="1845" y="438"/>
      <point x="1845" y="991.999" type="curve" smooth="yes"/>
      <point x="1845" y="1458"/>
      <point x="1606" y="1867"/>
      <point x="1143" y="1867" type="curve" smooth="yes"/>
      <point x="524" y="1867"/>
      <point x="150" y="1186"/>
      <point x="150" y="543" type="curve" smooth="yes"/>
      <point x="150" y="146"/>
      <point x="396" y="-303"/>
    </contour>
    <contour>
      <point x="1085" y="1928" type="curve" smooth="yes"/>
      <point x="1120" y="1928"/>
      <point x="1143" y="1959"/>
      <point x="1143" y="1995" type="curve" smooth="yes"/>
      <point x="1143" y="2013"/>
      <point x="1140" y="2029"/>
      <point x="1133" y="2043" type="curve"/>
      <point x="1064" y="2194"/>
      <point x="1008" y="2331"/>
      <point x="941" y="2486" type="curve" smooth="yes"/>
      <point x="925" y="2523"/>
      <point x="893" y="2550"/>
      <point x="846" y="2550" type="curve" smooth="yes"/>
      <point x="768" y="2550"/>
      <point x="701" y="2492"/>
      <point x="701" y="2414" type="curve" smooth="yes"/>
      <point x="701" y="2384"/>
      <point x="713" y="2352"/>
      <point x="738" y="2317" type="curve" smooth="yes"/>
      <point x="800" y="2232"/>
      <point x="872" y="2142"/>
      <point x="939" y="2060" type="curve" smooth="yes"/>
      <point x="973.999" y="2017"/>
      <point x="1017" y="1928"/>
    </contour>
  </outline>
</glyph>
<glyph name="igrave" format="1">
  <advance width="537"/>
  <unicode hex="00EC"/>
  <outline>
    <contour>
      <point x="282" y="0" type="curve" smooth="yes"/>
      <point x="466" y="0"/>
      <point x="636" y="121"/>
      <point x="736" y="213" type="curve"/>
      <point x="736" y="416" type="line"/>
      <point x="658" y="352"/>
      <point x="534" y="192"/>
      <point x="403" y="192" type="curve" smooth="yes"/>
      <point x="357" y="192"/>
      <point x="352" y="240"/>
      <point x="352" y="290" type="curve" smooth="yes"/>
      <point x="352" y="514"/>
      <point x="486" y="695"/>
      <point x="486" y="903" type="curve" smooth="yes"/>
      <point x="486" y="945"/>
      <point x="462" y="960"/>
      <point x="414" y="960" type="curve" smooth="yes"/>
      <point x="335" y="960"/>
      <point x="248" y="928"/>
      <point x="232" y="863" type="curve" smooth="yes"/>
      <point x="182" y="661"/>
      <point x="95.9999" y="438"/>
      <point x="95.9999" y="201" type="curve" smooth="yes"/>
      <point x="95.9999" y="71"/>
      <point x="151" y="0"/>
    </contour>
    <contour>
      <point x="255" y="1082" type="curve" smooth="yes"/>
      <point x="290" y="1082"/>
      <point x="313" y="1113"/>
      <point x="313" y="1149" type="curve" smooth="yes"/>
      <point x="313" y="1167"/>
      <point x="310" y="1183"/>
      <point x="303" y="1197" type="curve"/>
      <point x="234" y="1348"/>
      <point x="178" y="1485"/>
      <point x="111" y="1640" type="curve" smooth="yes"/>
      <point x="94.9999" y="1677"/>
      <point x="63" y="1704"/>
      <point x="16" y="1704" type="curve" smooth="yes"/>
      <point x="-62" y="1704"/>
      <point x="-129" y="1646"/>
      <point x="-129" y="1568" type="curve" smooth="yes"/>
      <point x="-129" y="1538"/>
      <point x="-117" y="1506"/>
      <point x="-92" y="1471" type="curve" smooth="yes"/>
      <point x="-30" y="1386"/>
      <point x="42" y="1296"/>
      <point x="109" y="1214" type="curve" smooth="yes"/>
      <point x="144" y="1171"/>
      <point x="187" y="1082"/>
    </contour>
  </outline>
</glyph>
<glyph name="udieresis" format="1">
  <advance width="927"/>
  <unicode hex="00FC"/>
  <outline>
    <contour>
      <point x="374" y="1082" type="curve" smooth="yes"/>
      <point x="478" y="1082"/>
      <point x="536" y="1155"/>
      <point x="536" y="1256" type="curve" smooth="yes"/>
      <point x="536" y="1351"/>
      <point x="485" y="1404"/>
      <point x="391" y="1404" type="curve" smooth="yes"/>
      <point x="288" y="1404"/>
      <point x="233" y="1332"/>
      <point x="233" y="1230" type="curve" smooth="yes"/>
      <point x="233" y="1132"/>
      <point x="281" y="1082"/>
    </contour>
    <contour>
      <point x="841" y="1082" type="curve" smooth="yes"/>
      <point x="946" y="1082"/>
      <point x="1003" y="1154"/>
      <point x="1003" y="1256" type="curve" smooth="yes"/>
      <point x="1003" y="1351"/>
      <point x="953" y="1404"/>
      <point x="858" y="1404" type="curve" smooth="yes"/>
      <point x="755" y="1404"/>
      <point x="700" y="1332"/>
      <point x="700" y="1230" type="curve" smooth="yes"/>
      <point x="700" y="1133"/>
      <point x="750" y="1082"/>
    </contour>
    <contour>
      <point x="282" y="-13" type="curve" smooth="yes"/>
      <point x="479" y="-33"/>
      <point x="608" y="154"/>
      <point x="644" y="251" type="curve"/>
      <point x="614" y="70"/>
      <point x="667" y="-17"/>
      <point x="819" y="-12" type="curve" smooth="yes"/>
      <point x="960" y="-7"/>
      <point x="1207" y="151"/>
      <point x="1279" y="283" type="curve"/>
      <point x="1285" y="326"/>
      <point x="1218" y="384"/>
      <point x="1170" y="384" type="curve" smooth="yes"/>
      <point x="1149" y="384"/>
      <point x="1145" y="375"/>
      <point x="1121" y="353" type="curve" smooth="yes"/>
      <point x="1089" y="323"/>
      <point x="965" y="192"/>
      <point x="878" y="186" type="curve" smooth="yes"/>
      <point x="851" y="184"/>
      <point x="829" y="205"/>
      <point x="838" y="286" type="curve" smooth="yes"/>
      <point x="866" y="531"/>
      <point x="946" y="791"/>
      <point x="969.999" y="869" type="curve" smooth="yes"/>
      <point x="983.999" y="915"/>
      <point x="929" y="964"/>
      <point x="876" y="964" type="curve" smooth="yes"/>
      <point x="809" y="964"/>
      <point x="774" y="953"/>
      <point x="736" y="816" type="curve" smooth="yes"/>
      <point x="654" y="523" type="line" smooth="yes"/>
      <point x="583" y="269"/>
      <point x="428" y="154"/>
      <point x="330" y="184" type="curve" smooth="yes"/>
      <point x="287" y="197"/>
      <point x="278" y="244"/>
      <point x="285" y="313" type="curve" smooth="yes"/>
      <point x="303" y="502"/>
      <point x="410" y="838"/>
      <point x="414" y="888" type="curve" smooth="yes"/>
      <point x="418" y="934"/>
      <point x="376" y="964"/>
      <point x="317" y="964" type="curve" smooth="yes"/>
      <point x="270" y="964"/>
      <point x="237" y="955"/>
      <point x="213" y="915" type="curve" smooth="yes"/>
      <point x="182" y="864"/>
      <point x="105" y="602"/>
      <point x="76" y="330" type="curve" smooth="yes"/>
      <point x="56" y="142"/>
      <point x="94.9999" y="6"/>
    </contour>
  </outline>
</glyph>
<glyph name="dotlessi" format="1">
  <advance width="537"/>
  <unicode hex="0131"/>
  <outline>
    <contour>
      <point x="282" y="0" type="curve" smooth="yes"/>
      <point x="466" y="0"/>
      <point x="636" y="121"/>
      <point x="736" y="213" type="curve"/>
      <point x="736" y="416" type="line"/>
      <point x="658" y="352"/>
      <point x="534" y="192"/>
      <point x="403" y="192" type="curve" smooth="yes"/>
      <point x="357" y="192"/>
      <point x="352" y="240"/>
      <point x="352" y="290" type="curve" smooth="yes"/>
      <point x="352" y="514"/>
      <point x="486" y="695"/>
      <point x="486" y="903" type="curve" smooth="yes"/>
      <point x="486" y="945"/>
      <point x="462" y="960"/>
      <point x="414" y="960" type="curve" smooth="yes"/>
      <point x="335" y="960"/>
      <point x="248" y="928"/>
      <point x="232" y="863" type="curve" smooth="yes"/>
      <point x="182" y="661"/>
      <point x="95.9999" y="438"/>
      <point x="95.9999" y="201" type="curve" smooth="yes"/>
      <point x="95.9999" y="71"/>
      <point x="151" y="0"/>
    </contour>
  </outline>
</glyph>
<glyph name="Zcaron" format="1">
  <advance width="1265"/>
  <unicode hex="017D"/>
  <outline>
    <contour>
      <point x="773" y="-30" type="curve" smooth="yes"/>
      <point x="1039" y="-30"/>
      <point x="1271" y="76"/>
      <point x="1417" y="172" type="curve"/>
      <point x="1431" y="184"/>
      <point x="1435" y="204"/>
      <point x="1435" y="227" type="curve" smooth="yes"/>
      <point x="1435" y="290"/>
      <point x="1384" y="358"/>
      <point x="1321" y="358" type="curve" smooth="yes"/>
      <point x="1306" y="358"/>
      <point x="1293" y="351"/>
      <point x="1277" y="342" type="curve"/>
      <point x="1130" y="283"/>
      <point x="998.999" y="213"/>
      <point x="761" y="213" type="curve" smooth="yes"/>
      <point x="654" y="213"/>
      <point x="550" y="319"/>
      <point x="463" y="319" type="curve"/>
      <point x="468" y="342" type="line"/>
      <point x="476" y="352"/>
      <point x="489" y="373"/>
      <point x="508" y="405" type="curve"/>
      <point x="741" y="749"/>
      <point x="997.999" y="1064"/>
      <point x="1321" y="1340" type="curve"/>
      <point x="1368" y="1366"/>
      <point x="1384" y="1388"/>
      <point x="1384" y="1454" type="curve" smooth="yes"/>
      <point x="1384" y="1514"/>
      <point x="1364" y="1558"/>
      <point x="1305" y="1558" type="curve" smooth="yes"/>
      <point x="1220" y="1558"/>
      <point x="1138" y="1546"/>
      <point x="1026" y="1546" type="curve" smooth="yes"/>
      <point x="964" y="1546" type="line" smooth="yes"/>
      <point x="942" y="1546"/>
      <point x="920" y="1546"/>
      <point x="895" y="1547" type="curve" smooth="yes"/>
      <point x="718" y="1550"/>
      <point x="609" y="1633"/>
      <point x="433" y="1633" type="curve" smooth="yes"/>
      <point x="230" y="1633"/>
      <point x="134" y="1385"/>
      <point x="134" y="1168" type="curve" smooth="yes"/>
      <point x="134" y="1137"/>
      <point x="140" y="1107"/>
      <point x="169" y="1107" type="curve" smooth="yes"/>
      <point x="302" y="1107"/>
      <point x="281" y="1382"/>
      <point x="423" y="1382" type="curve" smooth="yes"/>
      <point x="438" y="1382"/>
      <point x="453" y="1380"/>
      <point x="470" y="1374" type="curve"/>
      <point x="586" y="1345"/>
      <point x="699" y="1310"/>
      <point x="860" y="1310" type="curve" smooth="yes"/>
      <point x="893" y="1310"/>
      <point x="926" y="1312"/>
      <point x="958" y="1312" type="curve"/>
      <point x="124" y="352" type="line" smooth="yes"/>
      <point x="73" y="294"/>
      <point x="13" y="238"/>
      <point x="13" y="156" type="curve" smooth="yes"/>
      <point x="13" y="88"/>
      <point x="65" y="51"/>
      <point x="134" y="51" type="curve" smooth="yes"/>
      <point x="214" y="51"/>
      <point x="276" y="90"/>
      <point x="328" y="135" type="curve"/>
      <point x="395" y="104"/>
      <point x="455" y="77"/>
      <point x="506" y="56" type="curve" smooth="yes"/>
      <point x="591" y="21"/>
      <point x="681" y="-30"/>
    </contour>
    <contour>
      <point x="595" y="1928" type="curve" smooth="yes"/>
      <point x="735" y="1928"/>
      <point x="767" y="2045"/>
      <point x="816" y="2142" type="curve" smooth="yes"/>
      <point x="979.999" y="2471" type="line" smooth="yes"/>
      <point x="985.999" y="2484"/>
      <point x="986.999" y="2497"/>
      <point x="986.999" y="2509" type="curve" smooth="yes"/>
      <point x="986.999" y="2552"/>
      <point x="959" y="2600"/>
      <point x="919" y="2600" type="curve" smooth="yes"/>
      <point x="818" y="2600"/>
      <point x="790" y="2549"/>
      <point x="758" y="2472" type="curve" smooth="yes"/>
      <point x="705" y="2346"/>
      <point x="660" y="2223"/>
      <point x="611" y="2092" type="curve"/>
      <point x="583" y="2206"/>
      <point x="579" y="2604"/>
      <point x="424" y="2604" type="curve" smooth="yes"/>
      <point x="354" y="2604"/>
      <point x="310" y="2560"/>
      <point x="310" y="2491" type="curve" smooth="yes"/>
      <point x="310" y="2478"/>
      <point x="311" y="2466"/>
      <point x="315" y="2456" type="curve"/>
      <point x="346" y="2355"/>
      <point x="375" y="2276"/>
      <point x="403" y="2178" type="curve" smooth="yes"/>
      <point x="436" y="2065"/>
      <point x="456" y="1928"/>
    </contour>
  </outline>
</glyph>
<glyph name="florin" format="1">
  <advance width="1314"/>
  <unicode hex="0192"/>
  <outline>
    <contour>
      <point x="214" y="-128" type="curve" smooth="yes"/>
      <point x="665" y="-128"/>
      <point x="689" y="486"/>
      <point x="771" y="864" type="curve"/>
      <point x="1068" y="864" type="line" smooth="yes"/>
      <point x="1124" y="864"/>
      <point x="1164" y="901"/>
      <point x="1164" y="960" type="curve" smooth="yes"/>
      <point x="1164" y="1022"/>
      <point x="1129" y="1056"/>
      <point x="1068" y="1056" type="curve" smooth="yes"/>
      <point x="801" y="1056" type="line"/>
      <point x="836" y="1256"/>
      <point x="878" y="1613"/>
      <point x="1089" y="1613" type="curve" smooth="yes"/>
      <point x="1162" y="1613"/>
      <point x="1199" y="1542"/>
      <point x="1267" y="1542" type="curve" smooth="yes"/>
      <point x="1333" y="1542"/>
      <point x="1377" y="1621"/>
      <point x="1377" y="1686" type="curve" smooth="yes"/>
      <point x="1377" y="1795"/>
      <point x="1231" y="1837"/>
      <point x="1123" y="1837" type="curve" smooth="yes"/>
      <point x="705" y="1837"/>
      <point x="618" y="1425"/>
      <point x="566" y="1056" type="curve"/>
      <point x="513" y="1056"/>
      <point x="458" y="1062"/>
      <point x="410" y="1062" type="curve" smooth="yes"/>
      <point x="329" y="1062"/>
      <point x="268" y="1046"/>
      <point x="268" y="960" type="curve" smooth="yes"/>
      <point x="268" y="894"/>
      <point x="297" y="864"/>
      <point x="364" y="864" type="curve" smooth="yes"/>
      <point x="536" y="864" type="line"/>
      <point x="523" y="760"/>
      <point x="509" y="668"/>
      <point x="495" y="590" type="curve" smooth="yes"/>
      <point x="463" y="411"/>
      <point x="428" y="95.9999"/>
      <point x="228" y="95.9999" type="curve" smooth="yes"/>
      <point x="180" y="95.9999"/>
      <point x="163" y="167"/>
      <point x="120" y="167" type="curve" smooth="yes"/>
      <point x="54" y="167"/>
      <point x="9.99999" y="88"/>
      <point x="9.99999" y="23" type="curve" smooth="yes"/>
      <point x="9.99999" y="-78"/>
      <point x="116" y="-128"/>
    </contour>
  </outline>
</glyph>
<glyph name="tilde" format="1">
  <advance width="960"/>
  <unicode hex="02DC"/>
  <outline>
    <contour>
      <point x="646" y="1055" type="curve" smooth="yes"/>
      <point x="764" y="1055"/>
      <point x="892" y="1202"/>
      <point x="892" y="1317" type="curve" smooth="yes"/>
      <point x="892" y="1363"/>
      <point x="855" y="1390"/>
      <point x="809" y="1390" type="curve" smooth="yes"/>
      <point x="710" y="1390"/>
      <point x="677" y="1281"/>
      <point x="628" y="1227" type="curve"/>
      <point x="578" y="1266"/>
      <point x="538" y="1299"/>
      <point x="506" y="1324" type="curve" smooth="yes"/>
      <point x="447" y="1371"/>
      <point x="400" y="1423"/>
      <point x="310" y="1423" type="curve" smooth="yes"/>
      <point x="192" y="1423"/>
      <point x="64" y="1276"/>
      <point x="64" y="1161" type="curve" smooth="yes"/>
      <point x="64" y="1115"/>
      <point x="101" y="1088"/>
      <point x="147" y="1088" type="curve" smooth="yes"/>
      <point x="242" y="1088"/>
      <point x="284" y="1196"/>
      <point x="328" y="1251" type="curve"/>
      <point x="378" y="1212"/>
      <point x="418" y="1179"/>
      <point x="450" y="1154" type="curve" smooth="yes"/>
      <point x="509" y="1107"/>
      <point x="556" y="1055"/>
    </contour>
  </outline>
</glyph>
<glyph name="quoteleft" format="1">
  <advance width="704"/>
  <unicode hex="2018"/>
  <outline>
    <contour>
      <point x="288" y="1184" type="curve" smooth="yes"/>
      <point x="352" y="1184"/>
      <point x="406" y="1230"/>
      <point x="416" y="1312" type="curve" smooth="yes"/>
      <point x="468" y="1757" type="line"/>
      <point x="469" y="1762"/>
      <point x="469" y="1767"/>
      <point x="469" y="1772" type="curve" smooth="yes"/>
      <point x="469" y="1820"/>
      <point x="443" y="1855"/>
      <point x="408" y="1855" type="curve" smooth="yes"/>
      <point x="356" y="1855"/>
      <point x="321" y="1809"/>
      <point x="306" y="1760" type="curve"/>
      <point x="259" y="1629"/>
      <point x="170" y="1447"/>
      <point x="170" y="1293" type="curve" smooth="yes"/>
      <point x="170" y="1219"/>
      <point x="221" y="1184"/>
    </contour>
  </outline>
</glyph>
<glyph name="c.init" format="1">
  <advance width="827"/>
  <outline>
    <contour>
      <point x="-6" y="373" type="curve" smooth="yes"/>
      <point x="68" y="400"/>
      <point x="164" y="451"/>
      <point x="154" y="457" type="curve"/>
      <point x="131" y="633" type="line"/>
      <point x="131" y="633"/>
      <point x="26" y="583"/>
      <point x="-53" y="556" type="curve" smooth="yes"/>
      <point x="-133" y="528"/>
      <point x="-79" y="345"/>
    </contour>
    <contour>
      <point x="438" y="-16" type="curve" smooth="yes"/>
      <point x="705" y="-33"/>
      <point x="884" y="147"/>
      <point x="964" y="267" type="curve" smooth="yes"/>
      <point x="1002" y="324"/>
      <point x="942" y="427"/>
      <point x="880" y="374" type="curve" smooth="yes"/>
      <point x="753" y="266"/>
      <point x="637" y="139"/>
      <point x="478" y="154" type="curve" smooth="yes"/>
      <point x="358" y="165"/>
      <point x="281" y="251"/>
      <point x="283" y="395" type="curve" smooth="yes"/>
      <point x="287" y="675"/>
      <point x="471" y="790"/>
      <point x="563" y="788" type="curve" smooth="yes"/>
      <point x="651" y="786"/>
      <point x="669" y="669"/>
      <point x="589" y="573" type="curve" smooth="yes"/>
      <point x="540" y="515"/>
      <point x="629" y="397"/>
      <point x="723" y="479" type="curve" smooth="yes"/>
      <point x="768" y="518"/>
      <point x="821" y="580"/>
      <point x="827" y="711" type="curve" smooth="yes"/>
      <point x="834" y="863"/>
      <point x="718" y="966"/>
      <point x="559" y="966" type="curve" smooth="yes"/>
      <point x="294" y="966"/>
      <point x="92" y="703"/>
      <point x="66" y="413" type="curve" smooth="yes"/>
      <point x="44" y="169"/>
      <point x="201" y="-1"/>
    </contour>
  </outline>
</glyph>
<glyph name="c_t" format="1">
  <advance width="1720"/>
  <outline>
    <contour>
      <point x="1307" y="-9" type="curve" smooth="yes"/>
      <point x="1472" y="-9"/>
      <point x="1621" y="62"/>
      <point x="1783" y="243" type="curve" smooth="yes"/>
      <point x="1882" y="352"/>
      <point x="1739" y="450"/>
      <point x="1680" y="383" type="curve" smooth="yes"/>
      <point x="1579" y="269"/>
      <point x="1461" y="177"/>
      <point x="1356" y="177" type="curve" smooth="yes"/>
      <point x="1203" y="177"/>
      <point x="1230" y="476"/>
      <point x="1257" y="672" type="curve"/>
      <point x="1539" y="882"/>
      <point x="1810" y="1258"/>
      <point x="1838" y="1626" type="curve" smooth="yes"/>
      <point x="1847" y="1732"/>
      <point x="1803" y="1822"/>
      <point x="1686" y="1824" type="curve" smooth="yes"/>
      <point x="1310" y="1828"/>
      <point x="1078" y="1073"/>
      <point x="1031" y="635" type="curve" smooth="yes"/>
      <point x="996.999" y="311"/>
      <point x="1057" y="-9"/>
    </contour>
    <contour>
      <point x="1277" y="827" type="curve"/>
      <point x="1317" y="1086"/>
      <point x="1441" y="1583"/>
      <point x="1649" y="1582" type="curve"/>
      <point x="1668" y="1581"/>
      <point x="1676" y="1563"/>
      <point x="1672" y="1540" type="curve"/>
      <point x="1642" y="1276"/>
      <point x="1456" y="1022"/>
    </contour>
    <contour>
      <point x="1146" y="636" type="line"/>
      <point x="1229" y="672"/>
      <point x="1552" y="773"/>
      <point x="1735" y="792" type="curve" smooth="yes"/>
      <point x="1825" y="801"/>
      <point x="1783" y="978.999"/>
      <point x="1682" y="965" type="curve" smooth="yes"/>
      <point x="1532" y="947"/>
      <point x="1328" y="888"/>
      <point x="1097" y="796" type="curve"/>
    </contour>
    <contour>
      <point x="438" y="-16" type="curve" smooth="yes"/>
      <point x="884" y="-40"/>
      <point x="1106" y="409"/>
      <point x="1240" y="707" type="curve"/>
      <point x="1176" y="820" type="line"/>
      <point x="1025" y="477"/>
      <point x="763" y="124"/>
      <point x="478" y="154" type="curve" smooth="yes"/>
      <point x="358" y="167"/>
      <point x="281" y="251"/>
      <point x="283" y="395" type="curve" smooth="yes"/>
      <point x="287" y="675"/>
      <point x="471" y="790"/>
      <point x="563" y="788" type="curve" smooth="yes"/>
      <point x="651" y="786"/>
      <point x="669" y="669"/>
      <point x="589" y="573" type="curve" smooth="yes"/>
      <point x="540" y="515"/>
      <point x="629" y="397"/>
      <point x="723" y="479" type="curve" smooth="yes"/>
      <point x="768" y="518"/>
      <point x="821" y="580"/>
      <point x="827" y="711" type="curve" smooth="yes"/>
      <point x="834" y="863"/>
      <point x="718" y="966"/>
      <point x="559" y="966" type="curve" smooth="yes"/>
      <point x="294" y="966"/>
      <point x="92" y="703"/>
      <point x="66" y="413" type="curve" smooth="yes"/>
      <point x="44" y="169"/>
      <point x="201" y="-3"/>
    </contour>
  </outline>
</glyph>
<glyph name="s.fina" format="1">
  <advance width="886"/>
  <outline>
    <contour>
      <point x="455" y="151" type="curve" smooth="yes"/>
      <point x="446" y="151"/>
      <point x="421" y="154"/>
      <point x="424" y="165" type="curve" smooth="yes"/>
      <point x="453" y="260"/>
      <point x="513" y="319"/>
      <point x="585" y="355" type="curve"/>
      <point x="596" y="330"/>
      <point x="602" y="305"/>
      <point x="602" y="282" type="curve" smooth="yes"/>
      <point x="602" y="225"/>
      <point x="514" y="151"/>
    </contour>
    <contour>
      <point x="446" y="-9" type="curve" smooth="yes"/>
      <point x="687" y="-9"/>
      <point x="794" y="114"/>
      <point x="794" y="279" type="curve" smooth="yes"/>
      <point x="794" y="322"/>
      <point x="784" y="364"/>
      <point x="767" y="405" type="curve"/>
      <point x="816" y="411"/>
      <point x="862" y="412"/>
      <point x="903" y="412" type="curve" smooth="yes"/>
      <point x="973.999" y="412"/>
      <point x="1025" y="372"/>
      <point x="1107" y="372" type="curve" smooth="yes"/>
      <point x="1122" y="372"/>
      <point x="1148" y="415"/>
      <point x="1148" y="446" type="curve" smooth="yes"/>
      <point x="1148" y="458"/>
      <point x="1144" y="468"/>
      <point x="1134" y="474" type="curve"/>
      <point x="1057" y="545"/>
      <point x="1002" y="621"/>
      <point x="925" y="621" type="curve" smooth="yes"/>
      <point x="847" y="621"/>
      <point x="760" y="598"/>
      <point x="675" y="560" type="curve"/>
      <point x="634" y="615"/>
      <point x="596" y="655"/>
      <point x="586" y="672" type="curve"/>
      <point x="587" y="679"/>
      <point x="595" y="691"/>
      <point x="607" y="706" type="curve" smooth="yes"/>
      <point x="643" y="750"/>
      <point x="688" y="822"/>
      <point x="688" y="878" type="curve" smooth="yes"/>
      <point x="688" y="925"/>
      <point x="657" y="960"/>
      <point x="560" y="960" type="curve" smooth="yes"/>
      <point x="483" y="960"/>
      <point x="436" y="913"/>
      <point x="409" y="864" type="curve" smooth="yes"/>
      <point x="313" y="690"/>
      <point x="194" y="483"/>
      <point x="108" y="358" type="curve" smooth="yes"/>
      <point x="89" y="331"/>
      <point x="48" y="295"/>
      <point x="48" y="260" type="curve" smooth="yes"/>
      <point x="48" y="226"/>
      <point x="66" y="199"/>
      <point x="117" y="199" type="curve" smooth="yes"/>
      <point x="215" y="199"/>
      <point x="256" y="270"/>
      <point x="256" y="270" type="curve"/>
      <point x="439" y="542" type="line"/>
      <point x="463" y="521"/>
      <point x="489" y="494"/>
      <point x="514" y="465" type="curve"/>
      <point x="387" y="370"/>
      <point x="292" y="243"/>
      <point x="292" y="120" type="curve" smooth="yes"/>
      <point x="292" y="28"/>
      <point x="378" y="-9"/>
    </contour>
  </outline>
</glyph>
<glyph name="t.init" format="1">
  <advance width="888"/>
  <outline>
    <contour>
      <point x="698" y="-9" type="curve" smooth="yes"/>
      <point x="881" y="-9"/>
      <point x="1024" y="136"/>
      <point x="1140" y="301" type="curve" smooth="yes"/>
      <point x="1157" y="325"/>
      <point x="1163" y="349"/>
      <point x="1163" y="369" type="curve" smooth="yes"/>
      <point x="1163" y="420"/>
      <point x="1123" y="454"/>
      <point x="1090" y="454" type="curve" smooth="yes"/>
      <point x="1078" y="454"/>
      <point x="1068" y="449"/>
      <point x="1060" y="440" type="curve"/>
      <point x="982.999" y="361"/>
      <point x="863" y="204"/>
      <point x="717" y="204" type="curve" smooth="yes"/>
      <point x="614" y="204"/>
      <point x="541" y="316"/>
      <point x="541" y="494" type="curve" smooth="yes"/>
      <point x="541" y="624"/>
      <point x="545" y="716"/>
      <point x="551" y="816" type="curve"/>
      <point x="583" y="846"/>
      <point x="627" y="878"/>
      <point x="682" y="922" type="curve"/>
      <point x="1066" y="922" type="line" smooth="yes"/>
      <point x="1103" y="922"/>
      <point x="1130" y="961"/>
      <point x="1130" y="1001" type="curve" smooth="yes"/>
      <point x="1130" y="1075"/>
      <point x="1077" y="1080"/>
      <point x="985.999" y="1080" type="curve" smooth="yes"/>
      <point x="838" y="1080" type="line" smooth="yes"/>
      <point x="819" y="1080"/>
      <point x="804" y="1079"/>
      <point x="793" y="1080" type="curve"/>
      <point x="868" y="1192"/>
      <point x="969.999" y="1329"/>
      <point x="969.999" y="1499" type="curve" smooth="yes"/>
      <point x="969.999" y="1637"/>
      <point x="913" y="1792"/>
      <point x="779" y="1792" type="curve" smooth="yes"/>
      <point x="734" y="1792"/>
      <point x="692" y="1772"/>
      <point x="651" y="1732" type="curve" smooth="yes"/>
      <point x="507" y="1589"/>
      <point x="425" y="1324"/>
      <point x="377" y="1080" type="curve"/>
      <point x="268" y="1080" type="line" smooth="yes"/>
      <point x="195" y="1080"/>
      <point x="141" y="1072"/>
      <point x="141" y="1019" type="curve" smooth="yes"/>
      <point x="141" y="967"/>
      <point x="220" y="922"/>
      <point x="349" y="922" type="curve"/>
      <point x="340" y="887"/>
      <point x="331" y="849"/>
      <point x="325" y="811" type="curve"/>
      <point x="190" y="677"/>
      <point x="77" y="600"/>
      <point x="-141" y="451" type="curve" smooth="yes"/>
      <point x="-198" y="412"/>
      <point x="-75" y="275"/>
      <point x="-24" y="317" type="curve"/>
      <point x="102" y="392"/>
      <point x="210" y="471"/>
      <point x="312" y="557" type="curve"/>
      <point x="323" y="275"/>
      <point x="394" y="-9"/>
    </contour>
    <contour>
      <point x="568" y="1080" type="curve"/>
      <point x="589" y="1081"/>
      <point x="608" y="1080"/>
      <point x="629" y="1080" type="curve"/>
      <point x="688" y="1178"/>
      <point x="753" y="1294"/>
      <point x="793" y="1408" type="curve" smooth="yes"/>
      <point x="804" y="1441"/>
      <point x="810" y="1469"/>
      <point x="810" y="1490" type="curve" smooth="yes"/>
      <point x="810" y="1532"/>
      <point x="800" y="1568"/>
      <point x="757" y="1568" type="curve" smooth="yes"/>
      <point x="650" y="1568"/>
      <point x="590" y="1178"/>
    </contour>
  </outline>
</glyph>
<glyph name="y.fina" format="1">
  <advance width="1175"/>
  <outline>
    <contour>
      <point x="561" y="-31" type="line"/>
      <point x="825" y="53" type="line"/>
      <point x="843" y="166"/>
      <point x="873" y="313"/>
      <point x="891" y="412" type="curve" smooth="yes"/>
      <point x="916" y="553"/>
      <point x="976.999" y="718"/>
      <point x="976.999" y="853" type="curve" smooth="yes"/>
      <point x="976.999" y="893"/>
      <point x="941" y="909"/>
      <point x="898" y="909" type="curve" smooth="yes"/>
      <point x="798" y="909"/>
      <point x="740" y="846"/>
      <point x="718" y="768" type="curve" smooth="yes"/>
      <point x="645" y="474" type="line" smooth="yes"/>
      <point x="620" y="381"/>
      <point x="568" y="192"/>
      <point x="438" y="192" type="curve" smooth="yes"/>
      <point x="360" y="192"/>
      <point x="344" y="260"/>
      <point x="344" y="324" type="curve" smooth="yes"/>
      <point x="344" y="454"/>
      <point x="381" y="584"/>
      <point x="416" y="692" type="curve" smooth="yes"/>
      <point x="437" y="751"/>
      <point x="474" y="793"/>
      <point x="474" y="852" type="curve" smooth="yes"/>
      <point x="474" y="900"/>
      <point x="426" y="924"/>
      <point x="375" y="924" type="curve" smooth="yes"/>
      <point x="303" y="924"/>
      <point x="240" y="881"/>
      <point x="213" y="832" type="curve" smooth="yes"/>
      <point x="131" y="677"/>
      <point x="74" y="513"/>
      <point x="74" y="281" type="curve" smooth="yes"/>
      <point x="74" y="123"/>
      <point x="179" y="-2"/>
      <point x="346" y="-2" type="curve" smooth="yes"/>
      <point x="445" y="-2"/>
      <point x="620" y="75"/>
      <point x="630" y="185" type="curve"/>
    </contour>
    <contour>
      <point x="233" y="-736" type="curve" smooth="yes"/>
      <point x="206" y="-736"/>
      <point x="193" y="-724"/>
      <point x="193" y="-699" type="curve" smooth="yes"/>
      <point x="193" y="-684"/>
      <point x="198" y="-664"/>
      <point x="208" y="-641" type="curve" smooth="yes"/>
      <point x="273" y="-489"/>
      <point x="409" y="-344"/>
      <point x="541" y="-256" type="curve"/>
      <point x="509" y="-417"/>
      <point x="429" y="-736"/>
    </contour>
    <contour>
      <point x="221" y="-928" type="curve" smooth="yes"/>
      <point x="278" y="-928"/>
      <point x="331" y="-918"/>
      <point x="378" y="-898" type="curve" smooth="yes"/>
      <point x="645" y="-790"/>
      <point x="740" y="-462"/>
      <point x="797" y="-148" type="curve"/>
      <point x="977.999" y="-107"/>
      <point x="1280" y="-60"/>
      <point x="1415" y="-44" type="curve"/>
      <point x="1460" y="-33"/>
      <point x="1478" y="2"/>
      <point x="1478" y="43" type="curve" smooth="yes"/>
      <point x="1478" y="101"/>
      <point x="1402" y="168"/>
      <point x="1303" y="168" type="curve" smooth="yes"/>
      <point x="1300" y="168"/>
      <point x="1296" y="168"/>
      <point x="1293" y="167" type="curve"/>
      <point x="1158" y="139"/>
      <point x="971.999" y="106"/>
      <point x="825" y="54" type="curve"/>
      <point x="854" y="257"/>
      <point x="660" y="298"/>
      <point x="565" y="-18" type="curve"/>
      <point x="344" y="-142"/>
      <point x="-3" y="-437"/>
      <point x="-3" y="-729" type="curve" smooth="yes"/>
      <point x="-3" y="-870"/>
      <point x="85" y="-928"/>
    </contour>
  </outline>
</glyph>
